<svg preserveAspectRatio="none" overflow="visible" style="display: block;" width="56" height="56" viewBox="0 0 56 56" fill="none" xmlns="http://www.w3.org/2000/svg">
<g id="noun_Learning_8272237_8F001A 1" clip-path="url(#clip0_0_23)">
<path id="Vector" fill-rule="evenodd" clip-rule="evenodd" d="M40.8027 56.5736V56.1474C40.8027 56.1044 40.7721 56.0637 40.7297 56.0565C40.3574 55.9679 40.0157 55.7788 39.7423 55.5011C39.3606 55.1133 39.1461 54.5843 39.1461 54.036C39.1461 53.5764 39.2946 53.1359 39.5656 52.7769C39.5915 52.7433 39.5915 52.6955 39.5656 52.662C39.2946 52.3029 39.1461 51.86 39.1461 51.4004C39.1461 50.8522 39.3606 50.3255 39.7423 49.9377C39.7918 49.885 39.846 49.8372 39.9025 49.7893C39.9285 49.7677 39.9402 49.7318 39.9355 49.6983C39.6645 48.3267 39.0165 47.0555 38.0645 46.0405C36.6389 44.5419 35.7599 42.5023 35.7599 40.2543C35.7599 35.6629 39.4312 31.9331 43.951 31.9331C48.473 31.9331 52.1441 35.6627 52.1441 40.2543C52.1441 42.5022 51.2652 44.5418 49.8395 46.0405C48.8875 47.0555 48.2395 48.3267 47.9685 49.6983C47.9614 49.7318 47.9756 49.7677 48.0015 49.7893C48.058 49.8372 48.1099 49.885 48.1617 49.9377C48.5435 50.3255 48.7579 50.8522 48.7579 51.4004C48.7579 51.86 48.6094 52.3029 48.3384 52.662C48.3125 52.6955 48.3125 52.7433 48.3384 52.7769C48.6094 53.1359 48.7579 53.5764 48.7579 54.036C48.7579 54.5842 48.5434 55.1133 48.1617 55.5011C47.8884 55.7788 47.5443 55.9679 47.1744 56.0565C47.1249 56.0685 47.1013 56.0996 47.1013 56.1474V56.5329C47.1013 57.1481 46.9316 57.591 46.6724 57.9261C46.425 58.2445 46.0833 58.4671 45.6615 58.6059C45.1903 58.7615 44.5964 58.807 43.9531 58.807C43.3075 58.807 42.7137 58.7615 42.2424 58.6059C41.8206 58.4671 41.4789 58.2444 41.2315 57.9261C40.977 57.6005 40.8097 57.1648 40.8026 56.5736L40.8027 56.5736ZM42.2873 56.2025V56.5999C42.292 56.7555 42.3179 56.88 42.3839 56.9757C42.5041 57.1457 42.7232 57.1936 42.9706 57.2367C43.2652 57.2869 43.5998 57.2989 43.9533 57.2989C44.3044 57.2989 44.639 57.2869 44.9336 57.2367C45.1786 57.1936 45.3978 57.1457 45.5203 56.9757C45.5934 56.868 45.6169 56.722 45.6169 56.5329V56.2025C45.6099 56.1498 45.5839 56.1115 45.5227 56.1067H42.3792C42.3156 56.1067 42.2896 56.1427 42.2873 56.2025ZM40.6307 54.0025V54.0552C40.6354 54.1964 40.692 54.3329 40.7909 54.4334C40.8946 54.5388 41.036 54.5986 41.1821 54.5986H46.7219C46.868 54.5986 47.0071 54.5388 47.1107 54.4334C47.2144 54.3281 47.2733 54.1845 47.2733 54.0361C47.2733 53.8876 47.2144 53.7416 47.1107 53.6387C47.0071 53.5333 46.868 53.4735 46.7219 53.4735H41.1821C41.036 53.4735 40.8946 53.5333 40.7909 53.6387C40.6967 53.7344 40.6378 53.8661 40.6307 54.0025ZM44.1795 49.3321C44.2266 49.3321 44.269 49.2914 44.2714 49.2435C44.3609 47.7737 44.5565 44.597 44.6838 42.4646C44.6838 42.4382 44.6744 42.4143 44.6579 42.3952C44.6414 42.376 44.6154 42.364 44.5895 42.364H43.3123C43.2888 42.364 43.2629 42.376 43.2464 42.3952C43.2275 42.4143 43.2204 42.4382 43.2204 42.4646C43.3477 44.5975 43.5409 47.7743 43.6328 49.2435C43.6352 49.2914 43.6752 49.3321 43.7247 49.3321H44.1795ZM48.7651 44.9992L48.7699 44.9944C49.9387 43.7687 50.6597 42.0954 50.6597 40.2545C50.6597 36.4961 47.6529 33.4439 43.9511 33.4439C40.2515 33.4439 37.245 36.4961 37.245 40.2545C37.245 42.0954 37.9661 43.7687 39.1349 44.9944L39.1396 44.9992C40.2542 46.1889 41.0224 47.6636 41.3617 49.2555C41.3711 49.301 41.4088 49.3321 41.4513 49.3321H42.0521C42.0781 49.3321 42.1016 49.3201 42.1181 49.301C42.137 49.2818 42.1464 49.2555 42.144 49.2292C42.0498 47.7019 41.8589 44.5635 41.734 42.4517C41.7317 42.4039 41.6916 42.3632 41.6421 42.3632H41.126C40.0327 42.3632 39.1466 41.4631 39.1466 40.3523C39.1466 39.2416 40.0327 38.3415 41.126 38.3415C42.2171 38.3415 43.1054 39.2416 43.1054 40.3523C43.1054 40.3906 43.1102 40.5366 43.1243 40.7665C43.1267 40.8167 43.1667 40.855 43.2162 40.855H44.689C44.7361 40.855 44.7785 40.8167 44.7809 40.7665C44.7927 40.5366 44.7997 40.3906 44.7997 40.3523C44.7997 39.2416 45.6858 38.3415 46.7791 38.3415C47.8725 38.3415 48.7585 39.2416 48.7585 40.3523C48.7585 41.4631 47.8725 42.3632 46.7791 42.3632H46.2631C46.2136 42.3632 46.1712 42.4039 46.1688 42.4517C46.0439 44.5632 45.853 47.7017 45.7611 49.2292C45.7588 49.2555 45.7682 49.2818 45.7847 49.301C45.8036 49.3201 45.8271 49.3321 45.853 49.3321H46.4516C46.4963 49.3321 46.534 49.301 46.5435 49.2555C46.8851 47.6588 47.6533 46.1865 48.7656 44.9992C48.7467 45.0183 48.7232 45.0279 48.6972 45.0279C48.6737 45.0279 48.6525 45.0183 48.6336 45.0016L48.6713 44.9633L48.6972 45.0279L48.7651 44.9992ZM41.5448 40.8554C41.5707 40.8554 41.5943 40.8458 41.6131 40.8266C41.6296 40.8075 41.639 40.7811 41.6367 40.7572C41.6249 40.5322 41.6202 40.3909 41.6202 40.3526C41.6202 40.0749 41.3963 39.8499 41.1253 39.8499C40.852 39.8499 40.6305 40.0749 40.6305 40.3526C40.6305 40.6303 40.852 40.8554 41.1253 40.8554H41.5448ZM46.7785 40.8554C47.0518 40.8554 47.2733 40.6303 47.2733 40.3526C47.2733 40.0749 47.0518 39.8499 46.7785 39.8499C46.5051 39.8499 46.2836 40.0749 46.2836 40.3526C46.2836 40.3909 46.2765 40.5322 46.2647 40.7572C46.2647 40.7811 46.2742 40.8075 46.2907 40.8266C46.3095 40.8458 46.3331 40.8554 46.359 40.8554H46.7785ZM40.6308 51.369V51.4336C40.6379 51.5725 40.6968 51.7017 40.7911 51.7999C40.8948 51.9052 41.0362 51.9651 41.1823 51.9651H46.7221C46.8682 51.9651 47.0072 51.9052 47.1109 51.7999C47.2146 51.6946 47.2735 51.5509 47.2735 51.4001C47.2735 51.2517 47.2146 51.1081 47.1109 51.0027C47.0072 50.8974 46.8682 50.84 46.7221 50.84H41.1823C41.0362 50.84 40.8948 50.8974 40.7911 51.0027C40.6968 51.1009 40.6379 51.2325 40.6308 51.369ZM5.41874 25.9002C5.41874 25.8475 5.38104 25.8068 5.3292 25.8044C4.63405 25.7805 3.96244 25.7685 3.32621 25.7685C3.27437 25.7685 3.23431 25.8116 3.23431 25.8643V45.6184C3.23431 45.6687 3.27437 45.7118 3.32385 45.7118C7.827 45.8435 15.8649 47.7705 21.5957 49.6736C21.8502 49.7574 22.0411 49.9753 22.093 50.241C22.3474 51.5313 23.6812 52.4649 25.2412 52.4649C26.8011 52.4649 28.1348 51.5313 28.3894 50.241C28.4412 49.9753 28.6321 49.7574 28.8866 49.6736C31.2477 48.8909 34.0001 48.0985 36.7338 47.433C37.1344 47.3372 37.535 47.5862 37.6292 47.9908C37.7259 48.3953 37.4808 48.8023 37.0825 48.9004C34.5494 49.518 32.0022 50.241 29.7752 50.9663C29.7469 50.9759 29.7234 50.9974 29.7139 51.0262C29.1366 52.7115 27.3669 53.973 25.2414 53.973C23.1159 53.973 21.3485 52.7115 20.7689 51.0262C20.7594 50.9974 20.7382 50.9759 20.7099 50.9663C14.781 49.0345 6.57333 47.0978 2.51347 47.2199C2.31317 47.2247 2.11758 47.1481 1.97386 47.0069C1.83014 46.8656 1.75 46.6693 1.75 46.4658V25.0218C1.75 24.6101 2.07519 24.2749 2.48048 24.2677C3.36178 24.2534 4.31617 24.2605 5.3247 24.2964C5.34826 24.2964 5.37418 24.2869 5.39068 24.2701C5.40953 24.251 5.41896 24.227 5.41896 24.2007V21.0623C5.41896 20.8541 5.50379 20.6554 5.65224 20.5117C5.80305 20.3705 6.00335 20.2963 6.20834 20.3083C12.2197 20.6817 18.5136 22.4891 25.1966 26.2691C25.2249 26.2834 25.2579 26.2834 25.2861 26.2691C31.9691 22.4891 38.2655 20.6816 44.2744 20.3083C44.4794 20.2963 44.6797 20.3705 44.8282 20.5117C44.979 20.6554 45.0638 20.8541 45.0638 21.0623V24.2007C45.0638 24.227 45.0732 24.251 45.0921 24.2701C45.1086 24.2869 45.1345 24.2964 45.1581 24.2964C46.1666 24.2605 47.1233 24.2534 48.0023 24.2677C48.4099 24.2749 48.7328 24.61 48.7328 25.0218V30.81C48.7328 31.2265 48.4005 31.5641 47.9905 31.5641C47.5828 31.5641 47.2482 31.2266 47.2482 30.81V25.8642C47.2482 25.8116 47.2081 25.7685 47.1563 25.7685C46.52 25.7685 45.8484 25.7805 45.1533 25.8044C45.1038 25.8068 45.0637 25.8475 45.0637 25.9002V29.9219C45.0637 30.3384 44.7315 30.676 44.3214 30.676C43.9114 30.676 43.5791 30.3384 43.5791 29.9219V21.9739C43.5791 21.9476 43.5674 21.9237 43.5485 21.9045C43.5297 21.8878 43.5037 21.8782 43.4778 21.8806C37.94 22.357 32.1548 24.1117 26.0329 27.5733C26.0022 27.59 25.9834 27.6212 25.9834 27.6547V47.1816C25.9834 47.2127 25.9999 47.2438 26.0282 47.263C26.0564 47.2797 26.0894 47.2797 26.1201 47.2653C28.7027 45.9248 31.3608 44.7326 34.1181 43.744C34.5046 43.6051 34.9287 43.811 35.0654 44.2036C35.2021 44.5962 34.9995 45.0271 34.613 45.1659C31.4884 46.2863 28.493 47.6771 25.5904 49.2475C25.3713 49.3648 25.1097 49.3648 24.8929 49.2475C19.0866 46.1067 12.9245 43.6891 6.05748 42.6999C5.69224 42.6472 5.41889 42.3289 5.41889 41.9554L5.41874 25.9002ZM24.499 27.6549C24.499 27.6214 24.4801 27.5903 24.4519 27.5735C18.3279 24.112 12.5427 22.3573 7.00491 21.8808C6.97899 21.8784 6.95307 21.888 6.93422 21.9047C6.91536 21.9239 6.90358 21.9478 6.90358 21.9742V41.2232C6.90358 41.2687 6.93893 41.3094 6.9837 41.3166C13.261 42.3148 18.9707 44.4693 24.3643 47.2651C24.3926 47.2795 24.4279 47.2795 24.4538 47.2627C24.4821 47.2436 24.4986 47.2125 24.4986 47.1814L24.499 27.6549ZM10.2613 37.9295C9.85837 37.8601 9.58739 37.4699 9.65571 37.0582C9.7264 36.6488 10.1105 36.3736 10.5134 36.4454C12.5164 36.7949 14.5524 37.312 16.6238 38.0133C17.0126 38.145 17.2224 38.5711 17.0928 38.9661C16.9632 39.3611 16.5413 39.5765 16.1525 39.4449C14.1543 38.7674 12.1914 38.2695 10.2613 37.9295ZM10.2613 33.0149C9.85837 32.9455 9.58739 32.5553 9.65571 32.1436C9.7264 31.7342 10.1105 31.4565 10.5134 31.5283C14.0481 32.1508 17.684 33.2854 21.4423 35.0402C21.8146 35.2125 21.9772 35.6626 21.8075 36.0408C21.6355 36.4167 21.1948 36.5843 20.8225 36.4095C17.1913 34.7146 13.6775 33.6158 10.2606 33.015L10.2613 33.0149ZM10.2613 28.1003C9.85837 28.0285 9.58739 27.6383 9.65571 27.229C9.7264 26.8196 10.1105 26.5443 10.5134 26.6137C14.0481 27.2338 17.684 28.3708 21.4423 30.1256C21.8146 30.2979 21.9772 30.748 21.8075 31.1238C21.6355 31.5021 21.1948 31.6697 20.8225 31.4949C17.1913 29.8 13.6775 28.6988 10.2606 28.1003L10.2613 28.1003ZM53.4851 29.5438C53.7749 29.2494 54.2462 29.2494 54.536 29.5462C54.8259 29.8407 54.8235 30.3171 54.5337 30.6115L52.0429 33.1322C51.7531 33.4243 51.2841 33.4243 50.9943 33.1298C50.7045 32.833 50.7045 32.3566 50.9967 32.0622L53.4851 29.5438ZM58.1744 39.4998C58.5844 39.4998 58.9167 39.8397 58.9167 40.2539C58.9167 40.6728 58.5844 41.0103 58.1744 41.0103H54.6562C54.2438 41.0103 53.9116 40.6728 53.9116 40.2539C53.9116 39.8398 54.2439 39.4998 54.6562 39.4998H58.1744ZM33.2481 39.4998C33.6582 39.4998 33.9928 39.8397 33.9928 40.2539C33.9928 40.6728 33.6581 41.0103 33.2481 41.0103H29.7276C29.32 41.0103 28.9853 40.6728 28.9853 40.2539C28.9853 39.8398 29.32 39.4998 29.7276 39.4998H33.2481ZM54.5338 49.8991C54.8236 50.1935 54.826 50.6699 54.5361 50.9667C54.2463 51.2612 53.775 51.2612 53.4852 50.9667L50.9968 48.4484C50.7046 48.1539 50.7046 47.6776 50.9944 47.3831C51.2842 47.0863 51.7532 47.0863 52.043 47.3807L54.5338 49.8991ZM36.9073 32.0626C37.1972 32.357 37.1995 32.8334 36.9097 33.1302C36.6199 33.4247 36.1509 33.4247 35.8587 33.1326L33.3703 30.6119C33.0805 30.3175 33.0781 29.8411 33.368 29.5466C33.6578 29.2498 34.1268 29.2498 34.4189 29.5443L36.9073 32.0626Z" fill="#8E0019"/>
</g>
<defs>
<clipPath id="clip0_0_23">
<rect width="56" height="56" fill="white"/>
</clipPath>
</defs>
</svg>
